<svg xmlns="http://www.w3.org/2000/svg" width="16" height="16" viewBox="0 0 16 16">
  <g id="arrow_back1" transform="translate(-797 -3248)">
    <g id="그룹_85140" data-name="그룹 85140" transform="translate(802.5 3251.776)">
      <path id="arrow_back_ios_FILL1_wght700_GRAD0_opsz48" d="M3.3.145.126,3.316a.428.428,0,0,0-.095.14.411.411,0,0,0,0,.316.428.428,0,0,0,.095.14L3.3,7.083a.506.506,0,0,0,.361.149.475.475,0,0,0,.361-.14.523.523,0,0,0,0-.741L1.283,3.614,4.02.876A.5.5,0,0,0,4.174.51.485.485,0,0,0,4.029.154.5.5,0,0,0,3.659,0,.49.49,0,0,0,3.3.145Z" transform="translate(0 0)" fill="#5d5d5d"/>
    </g>
    <rect id="사각형_48244" data-name="사각형 48244" width="16" height="16" transform="translate(797 3248)" fill="none"/>
  </g>
</svg>
