<svg xmlns="http://www.w3.org/2000/svg" width="16" height="16" viewBox="0 0 16 16">
  <g id="arrow_front1" transform="translate(-1138 -3248)">
    <g id="그룹_85139" data-name="그룹 85139" transform="translate(4.027 2452.195)">
      <path id="arrow_back_ios_FILL1_wght700_GRAD0_opsz48" d="M.876.145,4.048,3.316a.428.428,0,0,1,.095.14.411.411,0,0,1,0,.316.428.428,0,0,1-.095.14L.876,7.084a.506.506,0,0,1-.361.149.475.475,0,0,1-.361-.14.523.523,0,0,1,0-.741L2.891,3.614.154.876A.5.5,0,0,1,0,.51.485.485,0,0,1,.145.154.5.5,0,0,1,.515,0,.49.49,0,0,1,.876.145Z" transform="translate(1140.473 799.581)" fill="#5d5d5d"/>
    </g>
    <rect id="사각형_48245" data-name="사각형 48245" width="16" height="16" transform="translate(1138 3248)" fill="none"/>
  </g>
</svg>
